<?xml version="1.0" encoding="us-ascii" standalone="no"?><svg xmlns="http://www.w3.org/2000/svg" xmlns:xlink="http://www.w3.org/1999/xlink" contentStyleType="text/css" height="1735px" preserveAspectRatio="none" style="width:1082px;height:1735px;background:#FFFFFF;" version="1.1" viewBox="0 0 1082 1735" width="1082px" zoomAndPan="magnify"><defs/><g><text fill="#000000" font-family="sans-serif" font-size="14" font-weight="bold" lengthAdjust="spacing" textLength="397" x="338.5" y="29.9659">Sequence: &#1083;&#1080;&#1095;&#1085;&#1099;&#1081; &#1095;&#1072;&#1090;, &#1075;&#1088;&#1091;&#1087;&#1087;&#1086;&#1074;&#1086;&#1081; &#1095;&#1072;&#1090;, leave/reconnect</text><line style="stroke:#181818;stroke-width:0.5;stroke-dasharray:5.0,5.0;" x1="62" x2="62" y1="124.1358" y2="1652.3186"/><line style="stroke:#181818;stroke-width:0.5;stroke-dasharray:5.0,5.0;" x1="187" x2="187" y1="124.1358" y2="1652.3186"/><line style="stroke:#181818;stroke-width:0.5;stroke-dasharray:5.0,5.0;" x1="310" x2="310" y1="124.1358" y2="1652.3186"/><line style="stroke:#181818;stroke-width:0.5;stroke-dasharray:5.0,5.0;" x1="529" x2="529" y1="124.1358" y2="1652.3186"/><line style="stroke:#181818;stroke-width:0.5;stroke-dasharray:5.0,5.0;" x1="792" x2="792" y1="124.1358" y2="1652.3186"/><line style="stroke:#181818;stroke-width:0.5;stroke-dasharray:5.0,5.0;" x1="914" x2="914" y1="124.1358" y2="1652.3186"/><line style="stroke:#181818;stroke-width:0.5;stroke-dasharray:5.0,5.0;" x1="1021" x2="1021" y1="124.1358" y2="1652.3186"/><text fill="#000000" font-family="sans-serif" font-size="14" lengthAdjust="spacing" textLength="109" x="5" y="120.0339">&#1055;&#1086;&#1083;&#1100;&#1079;&#1086;&#1074;&#1072;&#1090;&#1077;&#1083;&#1100; A</text><ellipse cx="62.5" cy="53.5679" fill="#E2E2F0" rx="8" ry="8" style="stroke:#181818;stroke-width:0.5;"/><path d="M62.5,61.5679 L62.5,88.5679 M49.5,69.5679 L75.5,69.5679 M62.5,88.5679 L49.5,103.5679 M62.5,88.5679 L75.5,103.5679 " fill="none" style="stroke:#181818;stroke-width:0.5;"/><text fill="#000000" font-family="sans-serif" font-size="14" lengthAdjust="spacing" textLength="109" x="5" y="1666.2845">&#1055;&#1086;&#1083;&#1100;&#1079;&#1086;&#1074;&#1072;&#1090;&#1077;&#1083;&#1100; A</text><ellipse cx="62.5" cy="1678.8865" fill="#E2E2F0" rx="8" ry="8" style="stroke:#181818;stroke-width:0.5;"/><path d="M62.5,1686.8865 L62.5,1713.8865 M49.5,1694.8865 L75.5,1694.8865 M62.5,1713.8865 L49.5,1728.8865 M62.5,1713.8865 L75.5,1728.8865 " fill="none" style="stroke:#181818;stroke-width:0.5;"/><text fill="#000000" font-family="sans-serif" font-size="14" lengthAdjust="spacing" textLength="109" x="130" y="120.0339">&#1055;&#1086;&#1083;&#1100;&#1079;&#1086;&#1074;&#1072;&#1090;&#1077;&#1083;&#1100; B</text><ellipse cx="187.5" cy="53.5679" fill="#E2E2F0" rx="8" ry="8" style="stroke:#181818;stroke-width:0.5;"/><path d="M187.5,61.5679 L187.5,88.5679 M174.5,69.5679 L200.5,69.5679 M187.5,88.5679 L174.5,103.5679 M187.5,88.5679 L200.5,103.5679 " fill="none" style="stroke:#181818;stroke-width:0.5;"/><text fill="#000000" font-family="sans-serif" font-size="14" lengthAdjust="spacing" textLength="109" x="130" y="1666.2845">&#1055;&#1086;&#1083;&#1100;&#1079;&#1086;&#1074;&#1072;&#1090;&#1077;&#1083;&#1100; B</text><ellipse cx="187.5" cy="1678.8865" fill="#E2E2F0" rx="8" ry="8" style="stroke:#181818;stroke-width:0.5;"/><path d="M187.5,1686.8865 L187.5,1713.8865 M174.5,1694.8865 L200.5,1694.8865 M187.5,1713.8865 L174.5,1728.8865 M187.5,1713.8865 L200.5,1728.8865 " fill="none" style="stroke:#181818;stroke-width:0.5;"/><rect fill="#E2E2F0" height="33.0679" rx="2.5" ry="2.5" style="stroke:#181818;stroke-width:0.5;" width="77" x="272" y="90.0679"/><text fill="#000000" font-family="sans-serif" font-size="14" lengthAdjust="spacing" textLength="63" x="279" y="112.0339">&#1050;&#1083;&#1080;&#1077;&#1085;&#1090; A</text><rect fill="#E2E2F0" height="33.0679" rx="2.5" ry="2.5" style="stroke:#181818;stroke-width:0.5;" width="77" x="272" y="1651.3186"/><text fill="#000000" font-family="sans-serif" font-size="14" lengthAdjust="spacing" textLength="63" x="279" y="1673.2845">&#1050;&#1083;&#1080;&#1077;&#1085;&#1090; A</text><rect fill="#E2E2F0" height="33.0679" rx="2.5" ry="2.5" style="stroke:#181818;stroke-width:0.5;" width="77" x="491" y="90.0679"/><text fill="#000000" font-family="sans-serif" font-size="14" lengthAdjust="spacing" textLength="63" x="498" y="112.0339">&#1050;&#1083;&#1080;&#1077;&#1085;&#1090; B</text><rect fill="#E2E2F0" height="33.0679" rx="2.5" ry="2.5" style="stroke:#181818;stroke-width:0.5;" width="77" x="491" y="1651.3186"/><text fill="#000000" font-family="sans-serif" font-size="14" lengthAdjust="spacing" textLength="63" x="498" y="1673.2845">&#1050;&#1083;&#1080;&#1077;&#1085;&#1090; B</text><rect fill="#E2E2F0" height="33.0679" rx="2.5" ry="2.5" style="stroke:#181818;stroke-width:0.5;" width="125" x="730" y="90.0679"/><text fill="#000000" font-family="sans-serif" font-size="14" lengthAdjust="spacing" textLength="111" x="737" y="112.0339">Signaling Server</text><rect fill="#E2E2F0" height="33.0679" rx="2.5" ry="2.5" style="stroke:#181818;stroke-width:0.5;" width="125" x="730" y="1651.3186"/><text fill="#000000" font-family="sans-serif" font-size="14" lengthAdjust="spacing" textLength="111" x="737" y="1673.2845">Signaling Server</text><rect fill="#E2E2F0" height="33.0679" rx="2.5" ry="2.5" style="stroke:#181818;stroke-width:0.5;" width="98" x="865" y="90.0679"/><text fill="#000000" font-family="sans-serif" font-size="14" lengthAdjust="spacing" textLength="84" x="872" y="112.0339">STUN Server</text><rect fill="#E2E2F0" height="33.0679" rx="2.5" ry="2.5" style="stroke:#181818;stroke-width:0.5;" width="98" x="865" y="1651.3186"/><text fill="#000000" font-family="sans-serif" font-size="14" lengthAdjust="spacing" textLength="84" x="872" y="1673.2845">STUN Server</text><rect fill="#E2E2F0" height="33.0679" rx="2.5" ry="2.5" style="stroke:#181818;stroke-width:0.5;" width="97" x="973" y="90.0679"/><text fill="#000000" font-family="sans-serif" font-size="14" lengthAdjust="spacing" textLength="83" x="980" y="112.0339">Relay Server</text><rect fill="#E2E2F0" height="33.0679" rx="2.5" ry="2.5" style="stroke:#181818;stroke-width:0.5;" width="97" x="973" y="1651.3186"/><text fill="#000000" font-family="sans-serif" font-size="14" lengthAdjust="spacing" textLength="83" x="980" y="1673.2845">Relay Server</text><rect fill="#EEEEEE" height="3" style="stroke:#EEEEEE;stroke-width:1.0;" width="1075" x="0" y="155.9888"/><line style="stroke:#000000;stroke-width:1.0;" x1="0" x2="1075" y1="155.9888" y2="155.9888"/><line style="stroke:#000000;stroke-width:1.0;" x1="0" x2="1075" y1="158.9888" y2="158.9888"/><rect fill="#EEEEEE" height="25.706" style="stroke:#000000;stroke-width:2.0;" width="268" x="403.5" y="144.1358"/><text fill="#000000" font-family="sans-serif" font-size="13" font-weight="bold" lengthAdjust="spacing" textLength="251" x="409.5" y="162.0328">&#1051;&#1080;&#1095;&#1085;&#1099;&#1081; &#1095;&#1072;&#1090; (P2P &#1095;&#1077;&#1088;&#1077;&#1079; DataChannel)</text><polygon fill="#181818" points="298.5,199.5479,308.5,203.5479,298.5,207.5479,302.5,203.5479" style="stroke:#181818;stroke-width:1.0;"/><line style="stroke:#181818;stroke-width:1.0;" x1="62.5" x2="304.5" y1="203.5479" y2="203.5479"/><text fill="#000000" font-family="sans-serif" font-size="13" font-weight="bold" lengthAdjust="spacing" textLength="7" x="69.5" y="197.7389">1</text><text fill="#000000" font-family="sans-serif" font-size="13" lengthAdjust="spacing" textLength="132" x="80.5" y="197.7389">&#1054;&#1090;&#1082;&#1088;&#1099;&#1090;&#1100; &#1083;&#1080;&#1095;&#1085;&#1099;&#1081; &#1095;&#1072;&#1090;</text><polygon fill="#181818" points="517.5,231.2539,527.5,235.2539,517.5,239.2539,521.5,235.2539" style="stroke:#181818;stroke-width:1.0;"/><line style="stroke:#181818;stroke-width:1.0;" x1="187.5" x2="523.5" y1="235.2539" y2="235.2539"/><text fill="#000000" font-family="sans-serif" font-size="13" font-weight="bold" lengthAdjust="spacing" textLength="7" x="194.5" y="229.4449">2</text><text fill="#000000" font-family="sans-serif" font-size="13" lengthAdjust="spacing" textLength="132" x="205.5" y="229.4449">&#1054;&#1090;&#1082;&#1088;&#1099;&#1090;&#1100; &#1083;&#1080;&#1095;&#1085;&#1099;&#1081; &#1095;&#1072;&#1090;</text><polygon fill="#181818" points="780.5,262.9599,790.5,266.9599,780.5,270.9599,784.5,266.9599" style="stroke:#181818;stroke-width:1.0;"/><line style="stroke:#181818;stroke-width:1.0;" x1="310.5" x2="786.5" y1="266.9599" y2="266.9599"/><text fill="#000000" font-family="sans-serif" font-size="13" font-weight="bold" lengthAdjust="spacing" textLength="7" x="317.5" y="261.1509">3</text><text fill="#000000" font-family="sans-serif" font-size="13" lengthAdjust="spacing" textLength="118" x="328.5" y="261.1509">WebSocket connect</text><polygon fill="#181818" points="780.5,294.6659,790.5,298.6659,780.5,302.6659,784.5,298.6659" style="stroke:#181818;stroke-width:1.0;"/><line style="stroke:#181818;stroke-width:1.0;" x1="529.5" x2="786.5" y1="298.6659" y2="298.6659"/><text fill="#000000" font-family="sans-serif" font-size="13" font-weight="bold" lengthAdjust="spacing" textLength="7" x="536.5" y="292.8569">4</text><text fill="#000000" font-family="sans-serif" font-size="13" lengthAdjust="spacing" textLength="118" x="547.5" y="292.8569">WebSocket connect</text><polygon fill="#181818" points="780.5,326.3719,790.5,330.3719,780.5,334.3719,784.5,330.3719" style="stroke:#181818;stroke-width:1.0;"/><line style="stroke:#181818;stroke-width:1.0;" x1="310.5" x2="786.5" y1="330.3719" y2="330.3719"/><text fill="#000000" font-family="sans-serif" font-size="13" font-weight="bold" lengthAdjust="spacing" textLength="7" x="317.5" y="324.5629">5</text><text fill="#000000" font-family="sans-serif" font-size="13" lengthAdjust="spacing" textLength="141" x="328.5" y="324.5629">join(roomId, username)</text><polygon fill="#181818" points="321.5,358.0779,311.5,362.0779,321.5,366.0779,317.5,362.0779" style="stroke:#181818;stroke-width:1.0;"/><line style="stroke:#181818;stroke-width:1.0;stroke-dasharray:2.0,2.0;" x1="315.5" x2="791.5" y1="362.0779" y2="362.0779"/><text fill="#000000" font-family="sans-serif" font-size="13" font-weight="bold" lengthAdjust="spacing" textLength="7" x="327.5" y="356.2689">6</text><text fill="#000000" font-family="sans-serif" font-size="13" lengthAdjust="spacing" textLength="169" x="338.5" y="356.2689">joined(peerIdA, participants)</text><polygon fill="#181818" points="780.5,389.784,790.5,393.784,780.5,397.784,784.5,393.784" style="stroke:#181818;stroke-width:1.0;"/><line style="stroke:#181818;stroke-width:1.0;" x1="529.5" x2="786.5" y1="393.784" y2="393.784"/><text fill="#000000" font-family="sans-serif" font-size="13" font-weight="bold" lengthAdjust="spacing" textLength="7" x="536.5" y="387.975">7</text><text fill="#000000" font-family="sans-serif" font-size="13" lengthAdjust="spacing" textLength="141" x="547.5" y="387.975">join(roomId, username)</text><polygon fill="#181818" points="540.5,421.49,530.5,425.49,540.5,429.49,536.5,425.49" style="stroke:#181818;stroke-width:1.0;"/><line style="stroke:#181818;stroke-width:1.0;stroke-dasharray:2.0,2.0;" x1="534.5" x2="791.5" y1="425.49" y2="425.49"/><text fill="#000000" font-family="sans-serif" font-size="13" font-weight="bold" lengthAdjust="spacing" textLength="7" x="546.5" y="419.681">8</text><text fill="#000000" font-family="sans-serif" font-size="13" lengthAdjust="spacing" textLength="169" x="557.5" y="419.681">joined(peerIdB, participants)</text><polygon fill="#181818" points="321.5,453.196,311.5,457.196,321.5,461.196,317.5,457.196" style="stroke:#181818;stroke-width:1.0;"/><line style="stroke:#181818;stroke-width:1.0;stroke-dasharray:2.0,2.0;" x1="315.5" x2="791.5" y1="457.196" y2="457.196"/><text fill="#000000" font-family="sans-serif" font-size="13" font-weight="bold" lengthAdjust="spacing" textLength="7" x="327.5" y="451.387">9</text><text fill="#000000" font-family="sans-serif" font-size="13" lengthAdjust="spacing" textLength="189" x="338.5" y="451.387">peer-joined(peerIdB, username)</text><polygon fill="#181818" points="902,484.902,912,488.902,902,492.902,906,488.902" style="stroke:#181818;stroke-width:1.0;"/><line style="stroke:#181818;stroke-width:1.0;" x1="310.5" x2="908" y1="488.902" y2="488.902"/><text fill="#000000" font-family="sans-serif" font-size="13" font-weight="bold" lengthAdjust="spacing" textLength="14" x="317.5" y="483.093">10</text><text fill="#000000" font-family="sans-serif" font-size="13" lengthAdjust="spacing" textLength="106" x="335.5" y="483.093">&#1047;&#1072;&#1087;&#1088;&#1086;&#1089; ICE/STUN</text><polygon fill="#181818" points="902,516.608,912,520.608,902,524.608,906,520.608" style="stroke:#181818;stroke-width:1.0;"/><line style="stroke:#181818;stroke-width:1.0;" x1="529.5" x2="908" y1="520.608" y2="520.608"/><text fill="#000000" font-family="sans-serif" font-size="13" font-weight="bold" lengthAdjust="spacing" textLength="14" x="536.5" y="514.799">11</text><text fill="#000000" font-family="sans-serif" font-size="13" lengthAdjust="spacing" textLength="106" x="554.5" y="514.799">&#1047;&#1072;&#1087;&#1088;&#1086;&#1089; ICE/STUN</text><polygon fill="#181818" points="780.5,548.314,790.5,552.314,780.5,556.314,784.5,552.314" style="stroke:#181818;stroke-width:1.0;"/><line style="stroke:#181818;stroke-width:1.0;" x1="310.5" x2="786.5" y1="552.314" y2="552.314"/><text fill="#000000" font-family="sans-serif" font-size="13" font-weight="bold" lengthAdjust="spacing" textLength="14" x="317.5" y="546.505">12</text><text fill="#000000" font-family="sans-serif" font-size="13" lengthAdjust="spacing" textLength="206" x="335.5" y="546.505">offer(fromPeerIdA, toPeerIdB, sdp)</text><polygon fill="#181818" points="540.5,580.0201,530.5,584.0201,540.5,588.0201,536.5,584.0201" style="stroke:#181818;stroke-width:1.0;"/><line style="stroke:#181818;stroke-width:1.0;stroke-dasharray:2.0,2.0;" x1="534.5" x2="791.5" y1="584.0201" y2="584.0201"/><text fill="#000000" font-family="sans-serif" font-size="13" font-weight="bold" lengthAdjust="spacing" textLength="14" x="546.5" y="578.2111">13</text><text fill="#000000" font-family="sans-serif" font-size="13" lengthAdjust="spacing" textLength="45" x="564.5" y="578.2111">offer(...)</text><polygon fill="#181818" points="780.5,611.7261,790.5,615.7261,780.5,619.7261,784.5,615.7261" style="stroke:#181818;stroke-width:1.0;"/><line style="stroke:#181818;stroke-width:1.0;" x1="529.5" x2="786.5" y1="615.7261" y2="615.7261"/><text fill="#000000" font-family="sans-serif" font-size="13" font-weight="bold" lengthAdjust="spacing" textLength="14" x="536.5" y="609.9171">14</text><text fill="#000000" font-family="sans-serif" font-size="13" lengthAdjust="spacing" textLength="221" x="554.5" y="609.9171">answer(fromPeerIdB, toPeerIdA, sdp)</text><polygon fill="#181818" points="321.5,643.4321,311.5,647.4321,321.5,651.4321,317.5,647.4321" style="stroke:#181818;stroke-width:1.0;"/><line style="stroke:#181818;stroke-width:1.0;stroke-dasharray:2.0,2.0;" x1="315.5" x2="791.5" y1="647.4321" y2="647.4321"/><text fill="#000000" font-family="sans-serif" font-size="13" font-weight="bold" lengthAdjust="spacing" textLength="14" x="327.5" y="641.6231">15</text><text fill="#000000" font-family="sans-serif" font-size="13" lengthAdjust="spacing" textLength="60" x="345.5" y="641.6231">answer(...)</text><polygon fill="#181818" points="780.5,675.1381,790.5,679.1381,780.5,683.1381,784.5,679.1381" style="stroke:#181818;stroke-width:1.0;"/><line style="stroke:#181818;stroke-width:1.0;" x1="310.5" x2="786.5" y1="679.1381" y2="679.1381"/><text fill="#000000" font-family="sans-serif" font-size="13" font-weight="bold" lengthAdjust="spacing" textLength="14" x="317.5" y="673.3291">16</text><text fill="#000000" font-family="sans-serif" font-size="13" lengthAdjust="spacing" textLength="96" x="335.5" y="673.3291">ice-candidate(...)</text><polygon fill="#181818" points="540.5,706.8441,530.5,710.8441,540.5,714.8441,536.5,710.8441" style="stroke:#181818;stroke-width:1.0;"/><line style="stroke:#181818;stroke-width:1.0;stroke-dasharray:2.0,2.0;" x1="534.5" x2="791.5" y1="710.8441" y2="710.8441"/><text fill="#000000" font-family="sans-serif" font-size="13" font-weight="bold" lengthAdjust="spacing" textLength="14" x="546.5" y="705.0351">17</text><text fill="#000000" font-family="sans-serif" font-size="13" lengthAdjust="spacing" textLength="96" x="564.5" y="705.0351">ice-candidate(...)</text><polygon fill="#181818" points="780.5,738.5501,790.5,742.5501,780.5,746.5501,784.5,742.5501" style="stroke:#181818;stroke-width:1.0;"/><line style="stroke:#181818;stroke-width:1.0;" x1="529.5" x2="786.5" y1="742.5501" y2="742.5501"/><text fill="#000000" font-family="sans-serif" font-size="13" font-weight="bold" lengthAdjust="spacing" textLength="14" x="536.5" y="736.7411">18</text><text fill="#000000" font-family="sans-serif" font-size="13" lengthAdjust="spacing" textLength="96" x="554.5" y="736.7411">ice-candidate(...)</text><polygon fill="#181818" points="321.5,770.2562,311.5,774.2562,321.5,778.2562,317.5,774.2562" style="stroke:#181818;stroke-width:1.0;"/><line style="stroke:#181818;stroke-width:1.0;stroke-dasharray:2.0,2.0;" x1="315.5" x2="791.5" y1="774.2562" y2="774.2562"/><text fill="#000000" font-family="sans-serif" font-size="13" font-weight="bold" lengthAdjust="spacing" textLength="14" x="327.5" y="768.4472">19</text><text fill="#000000" font-family="sans-serif" font-size="13" lengthAdjust="spacing" textLength="96" x="345.5" y="768.4472">ice-candidate(...)</text><polygon fill="#181818" points="517.5,801.9622,527.5,805.9622,517.5,809.9622,521.5,805.9622" style="stroke:#181818;stroke-width:1.0;"/><line style="stroke:#181818;stroke-width:1.0;" x1="310.5" x2="523.5" y1="805.9622" y2="805.9622"/><text fill="#000000" font-family="sans-serif" font-size="13" font-weight="bold" lengthAdjust="spacing" textLength="14" x="317.5" y="800.1532">20</text><text fill="#000000" font-family="sans-serif" font-size="13" lengthAdjust="spacing" textLength="177" x="335.5" y="800.1532">DataChannel open + message</text><line style="stroke:#181818;stroke-width:1.0;stroke-dasharray:2.0,2.0;" x1="529.5" x2="571.5" y1="837.6682" y2="837.6682"/><line style="stroke:#181818;stroke-width:1.0;stroke-dasharray:2.0,2.0;" x1="571.5" x2="571.5" y1="837.6682" y2="850.6682"/><line style="stroke:#181818;stroke-width:1.0;stroke-dasharray:2.0,2.0;" x1="530.5" x2="571.5" y1="850.6682" y2="850.6682"/><polygon fill="#181818" points="540.5,846.6682,530.5,850.6682,540.5,854.6682,536.5,850.6682" style="stroke:#181818;stroke-width:1.0;"/><text fill="#000000" font-family="sans-serif" font-size="13" font-weight="bold" lengthAdjust="spacing" textLength="14" x="536.5" y="831.8592">21</text><text fill="#000000" font-family="sans-serif" font-size="13" lengthAdjust="spacing" textLength="173" x="554.5" y="831.8592">&#1057;&#1086;&#1093;&#1088;&#1072;&#1085;&#1080;&#1090;&#1100; &#1074; &#1083;&#1086;&#1082;&#1072;&#1083;&#1100;&#1085;&#1091;&#1102; &#1041;&#1044;</text><rect fill="#EEEEEE" height="3" style="stroke:#EEEEEE;stroke-width:1.0;" width="1075" x="0" y="880.5212"/><line style="stroke:#000000;stroke-width:1.0;" x1="0" x2="1075" y1="880.5212" y2="880.5212"/><line style="stroke:#000000;stroke-width:1.0;" x1="0" x2="1075" y1="883.5212" y2="883.5212"/><rect fill="#EEEEEE" height="25.706" style="stroke:#000000;stroke-width:2.0;" width="250" x="412.5" y="868.6682"/><text fill="#000000" font-family="sans-serif" font-size="13" font-weight="bold" lengthAdjust="spacing" textLength="233" x="418.5" y="886.5652">&#1043;&#1088;&#1091;&#1087;&#1087;&#1086;&#1074;&#1086;&#1081; &#1095;&#1072;&#1090; (&#1095;&#1077;&#1088;&#1077;&#1079; Relay Server)</text><polygon fill="#181818" points="298.5,924.0802,308.5,928.0802,298.5,932.0802,302.5,928.0802" style="stroke:#181818;stroke-width:1.0;"/><line style="stroke:#181818;stroke-width:1.0;" x1="62.5" x2="304.5" y1="928.0802" y2="928.0802"/><text fill="#000000" font-family="sans-serif" font-size="13" font-weight="bold" lengthAdjust="spacing" textLength="14" x="69.5" y="922.2712">22</text><text fill="#000000" font-family="sans-serif" font-size="13" lengthAdjust="spacing" textLength="206" x="87.5" y="922.2712">&#1057;&#1086;&#1079;&#1076;&#1072;&#1090;&#1100;/&#1087;&#1086;&#1076;&#1082;&#1083;&#1102;&#1095;&#1080;&#1090;&#1100;&#1089;&#1103; &#1082; &#1075;&#1088;&#1091;&#1087;&#1087;&#1077;</text><polygon fill="#181818" points="517.5,955.7862,527.5,959.7862,517.5,963.7862,521.5,959.7862" style="stroke:#181818;stroke-width:1.0;"/><line style="stroke:#181818;stroke-width:1.0;" x1="187.5" x2="523.5" y1="959.7862" y2="959.7862"/><text fill="#000000" font-family="sans-serif" font-size="13" font-weight="bold" lengthAdjust="spacing" textLength="14" x="194.5" y="953.9772">23</text><text fill="#000000" font-family="sans-serif" font-size="13" lengthAdjust="spacing" textLength="169" x="212.5" y="953.9772">&#1055;&#1086;&#1076;&#1082;&#1083;&#1102;&#1095;&#1080;&#1090;&#1100;&#1089;&#1103; &#1087;&#1086; Room ID</text><polygon fill="#181818" points="780.5,987.4923,790.5,991.4923,780.5,995.4923,784.5,991.4923" style="stroke:#181818;stroke-width:1.0;"/><line style="stroke:#181818;stroke-width:1.0;" x1="310.5" x2="786.5" y1="991.4923" y2="991.4923"/><text fill="#000000" font-family="sans-serif" font-size="13" font-weight="bold" lengthAdjust="spacing" textLength="14" x="317.5" y="985.6833">24</text><text fill="#000000" font-family="sans-serif" font-size="13" lengthAdjust="spacing" textLength="181" x="335.5" y="985.6833">join(groupRoomId, username)</text><polygon fill="#181818" points="321.5,1019.1983,311.5,1023.1983,321.5,1027.1983,317.5,1023.1983" style="stroke:#181818;stroke-width:1.0;"/><line style="stroke:#181818;stroke-width:1.0;stroke-dasharray:2.0,2.0;" x1="315.5" x2="791.5" y1="1023.1983" y2="1023.1983"/><text fill="#000000" font-family="sans-serif" font-size="13" font-weight="bold" lengthAdjust="spacing" textLength="14" x="327.5" y="1017.3893">25</text><text fill="#000000" font-family="sans-serif" font-size="13" lengthAdjust="spacing" textLength="204" x="345.5" y="1017.3893">joined(peerIdA, roomType=group)</text><polygon fill="#181818" points="780.5,1050.9043,790.5,1054.9043,780.5,1058.9043,784.5,1054.9043" style="stroke:#181818;stroke-width:1.0;"/><line style="stroke:#181818;stroke-width:1.0;" x1="529.5" x2="786.5" y1="1054.9043" y2="1054.9043"/><text fill="#000000" font-family="sans-serif" font-size="13" font-weight="bold" lengthAdjust="spacing" textLength="14" x="536.5" y="1049.0953">26</text><text fill="#000000" font-family="sans-serif" font-size="13" lengthAdjust="spacing" textLength="181" x="554.5" y="1049.0953">join(groupRoomId, username)</text><polygon fill="#181818" points="540.5,1082.6103,530.5,1086.6103,540.5,1090.6103,536.5,1086.6103" style="stroke:#181818;stroke-width:1.0;"/><line style="stroke:#181818;stroke-width:1.0;stroke-dasharray:2.0,2.0;" x1="534.5" x2="791.5" y1="1086.6103" y2="1086.6103"/><text fill="#000000" font-family="sans-serif" font-size="13" font-weight="bold" lengthAdjust="spacing" textLength="14" x="546.5" y="1080.8013">27</text><text fill="#000000" font-family="sans-serif" font-size="13" lengthAdjust="spacing" textLength="204" x="564.5" y="1080.8013">joined(peerIdB, roomType=group)</text><polygon fill="#181818" points="321.5,1114.3163,311.5,1118.3163,321.5,1122.3163,317.5,1118.3163" style="stroke:#181818;stroke-width:1.0;"/><line style="stroke:#181818;stroke-width:1.0;stroke-dasharray:2.0,2.0;" x1="315.5" x2="791.5" y1="1118.3163" y2="1118.3163"/><text fill="#000000" font-family="sans-serif" font-size="13" font-weight="bold" lengthAdjust="spacing" textLength="14" x="327.5" y="1112.5073">28</text><text fill="#000000" font-family="sans-serif" font-size="13" lengthAdjust="spacing" textLength="189" x="345.5" y="1112.5073">peer-joined(peerIdB, username)</text><polygon fill="#181818" points="1009.5,1146.0223,1019.5,1150.0223,1009.5,1154.0223,1013.5,1150.0223" style="stroke:#181818;stroke-width:1.0;"/><line style="stroke:#181818;stroke-width:1.0;" x1="310.5" x2="1015.5" y1="1150.0223" y2="1150.0223"/><text fill="#000000" font-family="sans-serif" font-size="13" font-weight="bold" lengthAdjust="spacing" textLength="14" x="317.5" y="1144.2133">29</text><text fill="#000000" font-family="sans-serif" font-size="13" lengthAdjust="spacing" textLength="194" x="335.5" y="1144.2133">connect(groupRoomId, peerIdA)</text><polygon fill="#181818" points="1009.5,1177.7284,1019.5,1181.7284,1009.5,1185.7284,1013.5,1181.7284" style="stroke:#181818;stroke-width:1.0;"/><line style="stroke:#181818;stroke-width:1.0;" x1="529.5" x2="1015.5" y1="1181.7284" y2="1181.7284"/><text fill="#000000" font-family="sans-serif" font-size="13" font-weight="bold" lengthAdjust="spacing" textLength="14" x="536.5" y="1175.9194">30</text><text fill="#000000" font-family="sans-serif" font-size="13" lengthAdjust="spacing" textLength="194" x="554.5" y="1175.9194">connect(groupRoomId, peerIdB)</text><polygon fill="#181818" points="1009.5,1209.4344,1019.5,1213.4344,1009.5,1217.4344,1013.5,1213.4344" style="stroke:#181818;stroke-width:1.0;"/><line style="stroke:#181818;stroke-width:1.0;" x1="310.5" x2="1015.5" y1="1213.4344" y2="1213.4344"/><text fill="#000000" font-family="sans-serif" font-size="13" font-weight="bold" lengthAdjust="spacing" textLength="14" x="317.5" y="1207.6254">31</text><text fill="#000000" font-family="sans-serif" font-size="13" lengthAdjust="spacing" textLength="205" x="335.5" y="1207.6254">send(groupRoomId, textMessage)</text><polygon fill="#181818" points="540.5,1241.1404,530.5,1245.1404,540.5,1249.1404,536.5,1245.1404" style="stroke:#181818;stroke-width:1.0;"/><line style="stroke:#181818;stroke-width:1.0;stroke-dasharray:2.0,2.0;" x1="534.5" x2="1020.5" y1="1245.1404" y2="1245.1404"/><text fill="#000000" font-family="sans-serif" font-size="13" font-weight="bold" lengthAdjust="spacing" textLength="14" x="546.5" y="1239.3314">32</text><text fill="#000000" font-family="sans-serif" font-size="13" lengthAdjust="spacing" textLength="145" x="564.5" y="1239.3314">broadcast(textMessage)</text><line style="stroke:#181818;stroke-width:1.0;stroke-dasharray:2.0,2.0;" x1="529.5" x2="571.5" y1="1276.8464" y2="1276.8464"/><line style="stroke:#181818;stroke-width:1.0;stroke-dasharray:2.0,2.0;" x1="571.5" x2="571.5" y1="1276.8464" y2="1289.8464"/><line style="stroke:#181818;stroke-width:1.0;stroke-dasharray:2.0,2.0;" x1="530.5" x2="571.5" y1="1289.8464" y2="1289.8464"/><polygon fill="#181818" points="540.5,1285.8464,530.5,1289.8464,540.5,1293.8464,536.5,1289.8464" style="stroke:#181818;stroke-width:1.0;"/><text fill="#000000" font-family="sans-serif" font-size="13" font-weight="bold" lengthAdjust="spacing" textLength="14" x="536.5" y="1271.0374">33</text><text fill="#000000" font-family="sans-serif" font-size="13" lengthAdjust="spacing" textLength="173" x="554.5" y="1271.0374">&#1057;&#1086;&#1093;&#1088;&#1072;&#1085;&#1080;&#1090;&#1100; &#1074; &#1083;&#1086;&#1082;&#1072;&#1083;&#1100;&#1085;&#1091;&#1102; &#1041;&#1044;</text><rect fill="#EEEEEE" height="3" style="stroke:#EEEEEE;stroke-width:1.0;" width="1075" x="0" y="1319.6994"/><line style="stroke:#000000;stroke-width:1.0;" x1="0" x2="1075" y1="1319.6994" y2="1319.6994"/><line style="stroke:#000000;stroke-width:1.0;" x1="0" x2="1075" y1="1322.6994" y2="1322.6994"/><rect fill="#EEEEEE" height="25.706" style="stroke:#000000;stroke-width:2.0;" width="145" x="465" y="1307.8464"/><text fill="#000000" font-family="sans-serif" font-size="13" font-weight="bold" lengthAdjust="spacing" textLength="128" x="471" y="1325.7434">&#1042;&#1099;&#1093;&#1086;&#1076; &#1080; reconnect</text><polygon fill="#181818" points="298.5,1363.2584,308.5,1367.2584,298.5,1371.2584,302.5,1367.2584" style="stroke:#181818;stroke-width:1.0;"/><line style="stroke:#181818;stroke-width:1.0;" x1="62.5" x2="304.5" y1="1367.2584" y2="1367.2584"/><text fill="#000000" font-family="sans-serif" font-size="13" font-weight="bold" lengthAdjust="spacing" textLength="14" x="69.5" y="1361.4494">34</text><text fill="#000000" font-family="sans-serif" font-size="13" lengthAdjust="spacing" textLength="107" x="87.5" y="1361.4494">leave &#1080;&#1079; &#1082;&#1086;&#1084;&#1085;&#1072;&#1090;&#1099;</text><polygon fill="#181818" points="780.5,1394.9645,790.5,1398.9645,780.5,1402.9645,784.5,1398.9645" style="stroke:#181818;stroke-width:1.0;"/><line style="stroke:#181818;stroke-width:1.0;" x1="310.5" x2="786.5" y1="1398.9645" y2="1398.9645"/><text fill="#000000" font-family="sans-serif" font-size="13" font-weight="bold" lengthAdjust="spacing" textLength="14" x="317.5" y="1393.1555">35</text><text fill="#000000" font-family="sans-serif" font-size="13" lengthAdjust="spacing" textLength="137" x="335.5" y="1393.1555">leave(roomId, peerIdA)</text><polygon fill="#181818" points="540.5,1426.6705,530.5,1430.6705,540.5,1434.6705,536.5,1430.6705" style="stroke:#181818;stroke-width:1.0;"/><line style="stroke:#181818;stroke-width:1.0;stroke-dasharray:2.0,2.0;" x1="534.5" x2="791.5" y1="1430.6705" y2="1430.6705"/><text fill="#000000" font-family="sans-serif" font-size="13" font-weight="bold" lengthAdjust="spacing" textLength="14" x="546.5" y="1424.8615">36</text><text fill="#000000" font-family="sans-serif" font-size="13" lengthAdjust="spacing" textLength="105" x="564.5" y="1424.8615">peer-left(peerIdA)</text><polygon fill="#181818" points="780.5,1458.3765,790.5,1462.3765,780.5,1466.3765,784.5,1462.3765" style="stroke:#181818;stroke-width:1.0;"/><line style="stroke:#181818;stroke-width:1.0;" x1="310.5" x2="786.5" y1="1462.3765" y2="1462.3765"/><text fill="#000000" font-family="sans-serif" font-size="13" font-weight="bold" lengthAdjust="spacing" textLength="14" x="317.5" y="1456.5675">37</text><text fill="#000000" font-family="sans-serif" font-size="13" lengthAdjust="spacing" textLength="244" x="335.5" y="1456.5675">join(roomId, username) &#1087;&#1086;&#1089;&#1083;&#1077; reconnect</text><polygon fill="#181818" points="321.5,1490.0825,311.5,1494.0825,321.5,1498.0825,317.5,1494.0825" style="stroke:#181818;stroke-width:1.0;"/><line style="stroke:#181818;stroke-width:1.0;stroke-dasharray:2.0,2.0;" x1="315.5" x2="791.5" y1="1494.0825" y2="1494.0825"/><text fill="#000000" font-family="sans-serif" font-size="13" font-weight="bold" lengthAdjust="spacing" textLength="14" x="327.5" y="1488.2735">38</text><text fill="#000000" font-family="sans-serif" font-size="13" lengthAdjust="spacing" textLength="194" x="345.5" y="1488.2735">joined(newPeerIdA, participants)</text><polygon fill="#181818" points="540.5,1521.7885,530.5,1525.7885,540.5,1529.7885,536.5,1525.7885" style="stroke:#181818;stroke-width:1.0;"/><line style="stroke:#181818;stroke-width:1.0;stroke-dasharray:2.0,2.0;" x1="534.5" x2="791.5" y1="1525.7885" y2="1525.7885"/><text fill="#000000" font-family="sans-serif" font-size="13" font-weight="bold" lengthAdjust="spacing" textLength="14" x="546.5" y="1519.9795">39</text><text fill="#000000" font-family="sans-serif" font-size="13" lengthAdjust="spacing" textLength="214" x="564.5" y="1519.9795">peer-joined(newPeerIdA, username)</text><path d="M651,1538.7885 L651,1636.7885 L933,1636.7885 L933,1548.7885 L923,1538.7885 L651,1538.7885 " fill="#FEFFDD" style="stroke:#181818;stroke-width:0.5;"/><path d="M923,1538.7885 L923,1548.7885 L933,1548.7885 L923,1538.7885 " fill="#FEFFDD" style="stroke:#181818;stroke-width:0.5;"/><text fill="#000000" font-family="sans-serif" font-size="13" lengthAdjust="spacing" textLength="191" x="657" y="1557.6855">Signaling &#1080;&#1089;&#1087;&#1086;&#1083;&#1100;&#1079;&#1091;&#1077;&#1090;&#1089;&#1103; &#1090;&#1086;&#1083;&#1100;&#1082;&#1086;</text><text fill="#000000" font-family="sans-serif" font-size="13" lengthAdjust="spacing" textLength="261" x="657" y="1575.3916">&#1076;&#1083;&#1103; &#1091;&#1089;&#1090;&#1072;&#1085;&#1086;&#1074;&#1083;&#1077;&#1085;&#1080;&#1103;/&#1087;&#1086;&#1076;&#1076;&#1077;&#1088;&#1078;&#1072;&#1085;&#1080;&#1103; WebRTC.</text><text fill="#000000" font-family="sans-serif" font-size="13" lengthAdjust="spacing" textLength="197" x="657" y="1593.0976">&#1055;&#1086;&#1083;&#1100;&#1079;&#1086;&#1074;&#1072;&#1090;&#1077;&#1083;&#1100;&#1089;&#1082;&#1080;&#1077; &#1089;&#1086;&#1086;&#1073;&#1097;&#1077;&#1085;&#1080;&#1103;:</text><text fill="#000000" font-family="sans-serif" font-size="13" lengthAdjust="spacing" textLength="190" x="657" y="1610.8036">- &#1083;&#1080;&#1095;&#1085;&#1099;&#1081; &#1095;&#1072;&#1090;: P2P DataChannel</text><text fill="#000000" font-family="sans-serif" font-size="13" lengthAdjust="spacing" textLength="178" x="657" y="1628.5096">- &#1075;&#1088;&#1091;&#1087;&#1087;&#1086;&#1074;&#1086;&#1081; &#1095;&#1072;&#1090;: Relay Server</text><!--SRC=[fLRDRjf04BxlKuno0ZKGgKSaAjca1mwj4AJgUMClr2tOr5wIvXQ8egfAbAW_KgLMQjGtIDFGf538A-o-KMSNZ7zYIACA8HdlDz_Cpimt0tTucq63lUunrs8b46DnBT-AYJmIlm4VpkLW7SHFkIyFn0r-fk82lz5Hcz4Tjk4potDTPd52UznpUvrjvXD2BUxvi2REq68iZyMLjaOpCLI_mLW36e1n9yxKE9DqgSyTo-bIboFwYmeL4HCvc3DLZ1MG6KabnT9mMYvjEsuBK-3lC5-36YdCrhEdYMFydKJKMPlknI5rGifb45zlvH9ojOSrzJoK-nZO5MnIJYilA2QldOTocHXGU8GNmK9ym_kFCEz7Se0voAWBCJNM_2SigMZcHWcUi-s6PxrY7CAQLSobHv7PIyznSxxdTQhsElG2vhkqm_Aa0OLvm0h0x5oNCRzg6-iGor2G9v6JrKHcYiXC4qKE5Q2G1aU4OUXOBSpGPt4kRZ3dKzc7QkNnXYxYFAOLYEZ-NhF9_5pJzpgry8RSguLk0xiRly8CN2mMyz6zgHli9XZCYC58CXWBjAQ8Wd0iLh2eQpisvMns63dDE5muNsveP1xENIhQM8U2rsKkF80E2mBQOfe-RC7lcBX3JD-vc63twJQyK9qu5IDyfsGzaGVo1CHxyMccZezBXWhaOlg8Ioib4FI8e-9IcSZZ3KrpYSx6yWJjTGYoBqz1ZEBpQnXJpTao2wI2EdOeL3VJ2cZvNgzRluSCLATlxNLPMLlcKpfOJPSXXZJTVULGBuNQJlgUnnl6jnfcnka2vjf946Tl-9DPY-H9VN6LRT-ZjaK3dai0_g-9Fk3CErHr174DYpMKQ1Izel0Okmbffk8FagkUEOfAgo6BeRJ8HLG6dTmsQ_BSul2kqQZRIFOn-c4KsEr6STbkBNjafhndu6FLTJtEm4EHuFQAbXeciQ-5eTSgIc28zrOjZljYzX8JGb04O_Nk08y6ElTAa6ErE97WD9JMfHRbhtbnJjMsg6zLYcJPtaRN8xL-0H-c-FaXtuMK9LB8sb8bKDinDd0KRDb_Zr9YDX3iGb1987y1]--></g></svg>