<?plantuml 1.2026.2beta3?><svg xmlns="http://www.w3.org/2000/svg" xmlns:xlink="http://www.w3.org/1999/xlink" contentStyleType="text/css" data-diagram-type="DESCRIPTION" height="422px" preserveAspectRatio="none" style="width:2720px;height:422px;background:#FFFFFF;" version="1.1" viewBox="0 0 2720 422" width="2720px" zoomAndPan="magnify"><defs/><g><!--cluster P2P ??????????--><g class="cluster" data-qualified-name="P2P .........." data-source-line="6" id="ent0003"><rect fill="none" height="318.56" rx="2.5" ry="2.5" style="stroke:#181818;stroke-width:1;" width="2666" x="7" y="97.79"/><text fill="#000000" font-family="sans-serif" font-size="14" font-weight="bold" lengthAdjust="spacing" textLength="139.084" x="1270.458" y="112.7851">P2P &#1052;&#1077;&#1089;&#1089;&#1077;&#1085;&#1076;&#1078;&#1077;&#1088;</text></g><!--cluster ?????? ???--><g class="cluster" data-qualified-name="P2P ................. ..." data-source-line="8" id="ent0004"><rect fill="none" height="251.56" rx="2.5" ry="2.5" style="stroke:#181818;stroke-width:1;" width="995" x="31" y="140.79"/><text fill="#000000" font-family="sans-serif" font-size="14" font-weight="bold" lengthAdjust="spacing" textLength="95.2383" x="480.8809" y="155.7851">&#1051;&#1080;&#1095;&#1085;&#1099;&#1081; &#1095;&#1072;&#1090;</text></g><!--cluster ????? ???????--><g class="cluster" data-qualified-name="P2P ................. ......... ......." data-source-line="11" id="ent0007"><rect fill="none" height="99.88" rx="2.5" ry="2.5" style="stroke:#181818;stroke-width:1;" width="462" x="55" y="183.79"/><text fill="#000000" font-family="sans-serif" font-size="14" font-weight="bold" lengthAdjust="spacing" textLength="127.415" x="222.2925" y="198.7851">&#1052;&#1086;&#1078;&#1085;&#1086; &#1089;&#1076;&#1077;&#1083;&#1072;&#1090;&#1100;</text></g><!--cluster ????????? ???--><g class="cluster" data-qualified-name="P2P .................... ..." data-source-line="18" id="ent0011"><rect fill="none" height="111.22" rx="2.5" ry="2.5" style="stroke:#181818;stroke-width:1;" width="1112" x="1050" y="178.12"/><text fill="#000000" font-family="sans-serif" font-size="14" font-weight="bold" lengthAdjust="spacing" textLength="117.3662" x="1547.3169" y="193.1151">&#1043;&#1088;&#1091;&#1087;&#1087;&#1086;&#1074;&#1086;&#1081; &#1095;&#1072;&#1090;</text></g><!--cluster ???????--><g class="cluster" data-qualified-name="P2P .................." data-source-line="26" id="ent0017"><rect fill="none" height="108.21" rx="2.5" ry="2.5" style="stroke:#181818;stroke-width:1;" width="463" x="2186" y="179.63"/><text fill="#000000" font-family="sans-serif" font-size="14" font-weight="bold" lengthAdjust="spacing" textLength="66.1992" x="2384.4004" y="194.6251">&#1040;&#1082;&#1082;&#1072;&#1091;&#1085;&#1090;</text></g><!--entity UC1--><g class="entity" data-qualified-name="P2P ................. ....UC1" data-source-line="9" id="ent0005"><ellipse cx="625.0032" cy="243.2286" fill="#F1F1F1" rx="88.3432" ry="20.0686" style="stroke:#181818;stroke-width:0.5;"/><text fill="#000000" font-family="sans-serif" font-size="14" lengthAdjust="spacing" textLength="149.9805" x="550.013" y="247.8771">&#1057;&#1086;&#1079;&#1076;&#1072;&#1090;&#1100; &#1083;&#1080;&#1095;&#1085;&#1099;&#1081; &#1095;&#1072;&#1090;</text></g><!--entity UC2--><g class="entity" data-qualified-name="P2P ................. ....UC2" data-source-line="10" id="ent0006"><ellipse cx="879.004" cy="243.2288" fill="#F1F1F1" rx="131.044" ry="28.6088" style="stroke:#181818;stroke-width:0.5;"/><text fill="#000000" font-family="sans-serif" font-size="14" lengthAdjust="spacing" textLength="242.7783" x="757.6148" y="247.8772">&#1055;&#1086;&#1089;&#1084;&#1086;&#1090;&#1088;&#1077;&#1090;&#1100; &#1080;&#1089;&#1090;&#1086;&#1088;&#1080;&#1102; &#1089;&#1086;&#1086;&#1073;&#1097;&#1077;&#1085;&#1080;&#1081;</text></g><!--entity UC5--><g class="entity" data-qualified-name="P2P ................. ....UC5" data-source-line="15" id="ent0010"><ellipse cx="913.9974" cy="354.8535" fill="#F1F1F1" rx="95.5174" ry="21.5035" style="stroke:#181818;stroke-width:0.5;"/><text fill="#000000" font-family="sans-serif" font-size="14" lengthAdjust="spacing" textLength="166.127" x="830.9339" y="359.5019">&#1054;&#1090;&#1087;&#1088;&#1072;&#1074;&#1080;&#1090;&#1100; &#1089;&#1086;&#1086;&#1073;&#1097;&#1077;&#1085;&#1080;&#1077;</text></g><!--entity UC3--><g class="entity" data-qualified-name="P2P ................. ......... ........UC3" data-source-line="12" id="ent0008"><ellipse cx="180.9998" cy="243.228" fill="#F1F1F1" rx="110.1898" ry="24.438" style="stroke:#181818;stroke-width:0.5;"/><text fill="#000000" font-family="sans-serif" font-size="14" lengthAdjust="spacing" textLength="198.29" x="81.8548" y="247.8764">&#1056;&#1077;&#1076;&#1072;&#1082;&#1090;&#1080;&#1088;&#1086;&#1074;&#1072;&#1090;&#1100; &#1089;&#1086;&#1086;&#1073;&#1097;&#1077;&#1085;&#1080;&#1077;</text></g><!--entity UC4--><g class="entity" data-qualified-name="P2P ................. ......... ........UC4" data-source-line="13" id="ent0009"><ellipse cx="413.9957" cy="243.2291" fill="#F1F1F1" rx="87.3957" ry="19.8791" style="stroke:#181818;stroke-width:0.5;"/><text fill="#000000" font-family="sans-serif" font-size="14" lengthAdjust="spacing" textLength="147.8203" x="340.0856" y="247.8776">&#1059;&#1076;&#1072;&#1083;&#1080;&#1090;&#1100; &#1089;&#1086;&#1086;&#1073;&#1097;&#1077;&#1085;&#1080;&#1077;</text></g><!--entity UC9--><g class="entity" data-qualified-name="P2P .................... ....UC9" data-source-line="19" id="ent0012"><ellipse cx="1139.9976" cy="243.2275" fill="#F1F1F1" rx="73.8876" ry="17.1775" style="stroke:#181818;stroke-width:0.5;"/><text fill="#000000" font-family="sans-serif" font-size="14" lengthAdjust="spacing" textLength="116.0195" x="1081.9879" y="247.876">&#1057;&#1086;&#1079;&#1076;&#1072;&#1090;&#1100; &#1075;&#1088;&#1091;&#1087;&#1087;&#1091;</text></g><!--entity UC10--><g class="entity" data-qualified-name="P2P .................... ....UC10" data-source-line="20" id="ent0013"><ellipse cx="1345.0048" cy="243.231" fill="#F1F1F1" rx="96.0548" ry="21.611" style="stroke:#181818;stroke-width:0.5;"/><text fill="#000000" font-family="sans-serif" font-size="14" lengthAdjust="spacing" textLength="167.3232" x="1261.3432" y="247.8794">&#1055;&#1088;&#1080;&#1075;&#1083;&#1072;&#1089;&#1080;&#1090;&#1100; &#1091;&#1095;&#1072;&#1089;&#1090;&#1085;&#1080;&#1082;&#1072;</text></g><!--entity UC11--><g class="entity" data-qualified-name="P2P .................... ....UC11" data-source-line="21" id="ent0014"><ellipse cx="1615.0024" cy="243.2305" fill="#F1F1F1" rx="138.5524" ry="30.1105" style="stroke:#181818;stroke-width:0.5;"/><text fill="#000000" font-family="sans-serif" font-size="14" lengthAdjust="spacing" textLength="258.5693" x="1485.7177" y="247.8789">&#1055;&#1086;&#1089;&#1084;&#1086;&#1090;&#1088;&#1077;&#1090;&#1100; &#1080;&#1085;&#1092;&#1086;&#1088;&#1084;&#1072;&#1094;&#1080;&#1102; &#1086; &#1075;&#1088;&#1091;&#1087;&#1087;&#1077;</text></g><!--entity UC13--><g class="entity" data-qualified-name="P2P .................... ....UC13" data-source-line="22" id="ent0015"><ellipse cx="1872.0048" cy="243.233" fill="#F1F1F1" rx="83.2648" ry="19.053" style="stroke:#181818;stroke-width:0.5;"/><text fill="#000000" font-family="sans-serif" font-size="14" lengthAdjust="spacing" textLength="138.3115" x="1802.8491" y="247.8814">&#1053;&#1072;&#1087;&#1080;&#1089;&#1072;&#1090;&#1100; &#1074; &#1075;&#1088;&#1091;&#1087;&#1087;&#1091;</text></g><!--entity UC15--><g class="entity" data-qualified-name="P2P .................... ....UC15" data-source-line="23" id="ent0016"><ellipse cx="2067.9997" cy="243.2339" fill="#F1F1F1" rx="78.1697" ry="18.0339" style="stroke:#181818;stroke-width:0.5;"/><text fill="#000000" font-family="sans-serif" font-size="14" lengthAdjust="spacing" textLength="126.3418" x="2004.8288" y="247.8824">&#1042;&#1099;&#1081;&#1090;&#1080; &#1080;&#1079; &#1075;&#1088;&#1091;&#1087;&#1087;&#1099;</text></g><!--entity UC17--><g class="entity" data-qualified-name="P2P ...................UC17" data-source-line="27" id="ent0018"><ellipse cx="2268.9965" cy="243.2333" fill="#F1F1F1" rx="67.4165" ry="15.8833" style="stroke:#181818;stroke-width:0.5;"/><text fill="#000000" font-family="sans-serif" font-size="14" lengthAdjust="spacing" textLength="99.791" x="2219.101" y="247.8817">&#1047;&#1072;&#1076;&#1072;&#1090;&#1100; &#1083;&#1086;&#1075;&#1080;&#1085;</text></g><!--entity UC12--><g class="entity" data-qualified-name="P2P ...................UC12" data-source-line="28" id="ent0019"><ellipse cx="2502.001" cy="243.2262" fill="#F1F1F1" rx="131.031" ry="28.6062" style="stroke:#181818;stroke-width:0.5;"/><text fill="#000000" font-family="sans-serif" font-size="14" lengthAdjust="spacing" textLength="242.751" x="2380.6255" y="247.8746">&#1057;&#1084;&#1077;&#1085;&#1080;&#1090;&#1100; &#1085;&#1072;&#1089;&#1090;&#1088;&#1086;&#1081;&#1082;&#1080; &#1087;&#1088;&#1080;&#1083;&#1086;&#1078;&#1077;&#1085;&#1080;&#1103;</text></g><!--entity User--><g class="entity" data-qualified-name="User" data-source-line="4" id="ent0002"><ellipse cx="1479.9998" cy="14" fill="#F1F1F1" rx="8" ry="8" style="stroke:#181818;stroke-width:0.5;"/><path d="M1479.9998,22 L1479.9998,49 M1466.9998,30 L1492.9998,30 M1479.9998,49 L1466.9998,64 M1479.9998,49 L1492.9998,64" fill="none" style="stroke:#181818;stroke-width:0.5;"/><text fill="#000000" font-family="sans-serif" font-size="14" lengthAdjust="spacing" textLength="103.0996" x="1428.45" y="78.4951">&#1055;&#1086;&#1083;&#1100;&#1079;&#1086;&#1074;&#1072;&#1090;&#1077;&#1083;&#1100;</text></g><!--link User to UC1--><g class="link" data-entity-1="ent0002" data-entity-2="ent0005" data-link-type="dependency" data-source-line="33" id="lnk20"><path d="M1428.19,45.16 C1268.4,47.09 790.42,55.69 730,89.79 C676.97,119.73 647.0679,183.2715 633.9979,217.1815" fill="none" id="User-to-UC1" style="stroke:#181818;stroke-width:1;"/><polygon fill="#181818" points="631.84,222.78,638.8091,215.8208,633.6382,218.1145,631.3444,212.9436,631.84,222.78" style="stroke:#181818;stroke-width:1;"/></g><!--link User to UC2--><g class="link" data-entity-1="ent0002" data-entity-2="ent0006" data-link-type="dependency" data-source-line="34" id="lnk21"><path d="M1428.27,46.13 C1329.2,49.6 1116.59,60.35 1050,89.79 C986.35,117.94 933.623,174.2074 904.223,209.9274" fill="none" id="User-to-UC2" style="stroke:#181818;stroke-width:1;"/><polygon fill="#181818" points="900.41,214.56,909.2179,210.153,903.5875,210.6995,903.041,205.0691,900.41,214.56" style="stroke:#181818;stroke-width:1;"/></g><!--link User to UC3--><g class="link" data-entity-1="ent0002" data-entity-2="ent0008" data-link-type="dependency" data-source-line="35" id="lnk22"><path d="M1428.07,45.48 C1207.83,49.16 359.85,64.89 309,89.79 C252.36,117.53 214.2476,177.8927 195.4076,213.3127" fill="none" id="User-to-UC3" style="stroke:#181818;stroke-width:1;"/><polygon fill="#181818" points="192.59,218.61,200.3479,212.5425,194.938,214.1956,193.2849,208.7857,192.59,218.61" style="stroke:#181818;stroke-width:1;"/></g><!--link User to UC4--><g class="link" data-entity-1="ent0002" data-entity-2="ent0009" data-link-type="dependency" data-source-line="36" id="lnk23"><path d="M1428.15,44.21 C1237.8,42.97 584.37,42.28 505,89.79 C454.75,119.88 430.6664,183.5148 420.7064,217.3048" fill="none" id="User-to-UC4" style="stroke:#181818;stroke-width:1;"/><polygon fill="#181818" points="419.01,223.06,425.3914,215.5582,420.4237,218.264,417.7178,213.2963,419.01,223.06" style="stroke:#181818;stroke-width:1;"/></g><!--link User to UC5--><g class="link" data-entity-1="ent0002" data-entity-2="ent0010" data-link-type="dependency" data-source-line="37" id="lnk24"><path d="M1531.68,44.67 C1752.8,45.02 2609.77,49.02 2649,89.79 C2712.96,156.27 2713.16,231.06 2649,297.34 C2591.69,356.55 1371.4999,355.8546 1015.8699,354.3946" fill="none" id="User-to-UC5" style="stroke:#181818;stroke-width:1;"/><polygon fill="#181818" points="1009.87,354.37,1018.8535,358.4069,1014.87,354.3905,1018.8863,350.407,1009.87,354.37" style="stroke:#181818;stroke-width:1;"/></g><!--link User to UC9--><g class="link" data-entity-1="ent0002" data-entity-2="ent0012" data-link-type="dependency" data-source-line="39" id="lnk25"><path d="M1428.03,49.01 C1364.67,55.18 1262.19,68.18 1231,89.79 C1181.85,123.85 1156.7492,188.1124 1146.5992,220.0124" fill="none" id="User-to-UC9" style="stroke:#181818;stroke-width:1;"/><polygon fill="#181818" points="1144.78,225.73,1151.3205,218.3665,1146.296,220.9654,1143.6971,215.9409,1144.78,225.73" style="stroke:#181818;stroke-width:1;"/></g><!--link User to UC10--><g class="link" data-entity-1="ent0002" data-entity-2="ent0013" data-link-type="dependency" data-source-line="40" id="lnk26"><path d="M1454.29,82.28 C1426.06,123.59 1385.1341,183.4854 1362.5941,216.4854" fill="none" id="User-to-UC10" style="stroke:#181818;stroke-width:1;"/><polygon fill="#181818" points="1359.21,221.44,1367.5892,216.2642,1362.0301,217.3112,1360.9831,211.7521,1359.21,221.44" style="stroke:#181818;stroke-width:1;"/></g><!--link User to UC11--><g class="link" data-entity-1="ent0002" data-entity-2="ent0014" data-link-type="dependency" data-source-line="41" id="lnk27"><path d="M1505.71,82.28 C1531.72,120.35 1567.995,173.436 1591.705,208.136" fill="none" id="User-to-UC11" style="stroke:#181818;stroke-width:1;"/><polygon fill="#181818" points="1595.09,213.09,1593.3152,203.4024,1592.2692,208.9617,1586.7099,207.9157,1595.09,213.09" style="stroke:#181818;stroke-width:1;"/></g><!--link User to UC13--><g class="link" data-entity-1="ent0002" data-entity-2="ent0015" data-link-type="dependency" data-source-line="42" id="lnk28"><path d="M1531.77,47.68 C1604.49,52.77 1732.31,65.01 1771,89.79 C1821.92,122.42 1850.8506,185.2944 1863.4106,218.2044" fill="none" id="User-to-UC13" style="stroke:#181818;stroke-width:1;"/><polygon fill="#181818" points="1865.55,223.81,1866.078,213.9753,1863.7672,219.1386,1858.6039,216.8278,1865.55,223.81" style="stroke:#181818;stroke-width:1;"/></g><!--link User to UC15--><g class="link" data-entity-1="ent0002" data-entity-2="ent0016" data-link-type="dependency" data-source-line="43" id="lnk29"><path d="M1531.62,46.79 C1650.46,52.08 1936.05,67.02 1973,89.79 C2024.23,121.38 2050.356,186.2736 2061.026,219.1136" fill="none" id="User-to-UC15" style="stroke:#181818;stroke-width:1;"/><polygon fill="#181818" points="2062.88,224.82,2063.9032,215.0244,2061.335,220.0647,2056.2947,217.4965,2062.88,224.82" style="stroke:#181818;stroke-width:1;"/></g><!--link User to UC12--><g class="link" data-entity-1="ent0002" data-entity-2="ent0019" data-link-type="dependency" data-source-line="44" id="lnk30"><path d="M1531.87,45.13 C1708.44,47.06 2279.28,55.9 2354,89.79 C2412.95,116.54 2457.2973,173.2707 2481.4573,209.4407" fill="none" id="User-to-UC12" style="stroke:#181818;stroke-width:1;"/><polygon fill="#181818" points="2484.79,214.43,2483.1172,204.7242,2482.0128,210.2722,2476.4648,209.1678,2484.79,214.43" style="stroke:#181818;stroke-width:1;"/></g><!--link User to UC17--><g class="link" data-entity-1="ent0002" data-entity-2="ent0018" data-link-type="dependency" data-source-line="46" id="lnk31"><path d="M1531.82,45.52 C1681.54,48.39 2107.58,59.18 2162,89.79 C2217.8,121.18 2249.1317,189.6116 2261.4417,221.5416" fill="none" id="User-to-UC17" style="stroke:#181818;stroke-width:1;"/><polygon fill="#181818" points="2263.6,227.14,2264.0947,217.3036,2261.8014,222.4747,2256.6303,220.1814,2263.6,227.14" style="stroke:#181818;stroke-width:1;"/></g><!--link UC10 to UC5--><g class="link" data-entity-1="ent0013" data-entity-2="ent0010" data-link-type="dependency" data-source-line="51" id="lnk32"><path d="M1309.51,263.69 C1287.48,275.02 1258.27,288.72 1231,297.34 C1154.38,321.57 1069.8006,335.6314 1005.1506,343.9814" fill="none" id="UC10-to-UC5" style="stroke:#181818;stroke-width:1;stroke-dasharray:7,7;"/><polygon fill="#181818" points="999.2,344.75,1008.6382,347.5642,1004.1588,344.1095,1007.6135,339.6301,999.2,344.75" style="stroke:#181818;stroke-width:1;"/></g><!--link UC1 to UC5--><g class="link" data-entity-1="ent0005" data-entity-2="ent0010" data-link-type="dependency" data-source-line="52" id="lnk33"><path d="M656.97,262.2 C677.44,273.25 704.8,287.19 730,297.34 C770.14,313.52 810.972,326.173 847.242,336.323" fill="none" id="UC1-to-UC5" style="stroke:#181818;stroke-width:1;stroke-dasharray:7,7;"/><polygon fill="#181818" points="853.02,337.94,845.4309,331.6626,848.205,336.5925,843.275,339.3666,853.02,337.94" style="stroke:#181818;stroke-width:1;"/></g><?plantuml-src XLFBJjj05DtFLrnvKxe88WQ4sB3X1v2gVe095ee8SPIO1QegvO6eAb1JjOikIdceFv06GXAIEBzmvuzwxjWJnYA2M8hdskUUS-RSSHpLA8veFuhZw9WEolMm59UZgceSbQkre1uSKoqe7GM7uOVuj1AIl0wgXvLGgQ0KHtNo-8OJdkXB7kBUvvvkyq1gZu86VMo4TQKMJUJj-Nl4LppGBTq2RiOF_8YgwT4dfSXgWVKtZ_GNdkaB7XCMe1K8uRV2Tr0QeXCFzINnv0NqlT7UBMPuE8JQ5FzjtOIQwHh1GXkFcbXz8xnFSFtJNush4Oyp3jzmFFkw0keHY4HQ7cIhgGtFchl5CrZZ9x2Fm9w50iaN6eDCOprh_MiQPJklmZSC_7FMT0sTENHwq7cZSLD9MoxcdxgfEpp79JwJjyE-jmswax5ksvGbIhutWRIibOwXawJ5o1Ftx6ZMNfqDfdbcPZD5zxcP419_5bzigMXd_0S1p6MercX_cTUYZVg7d1QPa8WDNUY5XIv9wpjsW3q0ENCZ-WLjvpGc204xi3nRYo2dwJnIt2pDnPoGCLZXP6uId9WJbYAxbiGtPc3d7HKA1G9PNtSn5-bQ-lrr1QVa-yDYntmCJk6xnRfRRBZ5fdAhxHpTMgxAiHTpZ0ZIhVmS9z9HTbFbQgboSX2cnY50gwkf2HHs_Hy0?></g></svg>